<svg width="158" height="50" viewBox="0 0 158 50" fill="none" xmlns="http://www.w3.org/2000/svg">
<path d="M72.5256 33H68.571L74.5966 15.5455H79.3523L85.3693 33H81.4148L77.0426 19.5341H76.9062L72.5256 33ZM72.2784 26.1392H81.6193V29.0199H72.2784V26.1392ZM92.6903 38.1818C91.5142 38.1818 90.5057 38.0199 89.6648 37.696C88.8295 37.3778 88.1648 36.9432 87.6705 36.392C87.1761 35.8409 86.8551 35.2216 86.7074 34.5341L90.0653 34.0824C90.1676 34.3438 90.3295 34.5881 90.5511 34.8153C90.7727 35.0426 91.0653 35.2244 91.429 35.3608C91.7983 35.5028 92.2472 35.5739 92.7756 35.5739C93.5653 35.5739 94.2159 35.3807 94.7273 34.9943C95.2443 34.6136 95.5028 33.9744 95.5028 33.0767V30.6818H95.3494C95.1903 31.0455 94.9517 31.3892 94.6335 31.7131C94.3153 32.0369 93.9062 32.3011 93.4062 32.5057C92.9062 32.7102 92.3097 32.8125 91.6165 32.8125C90.6335 32.8125 89.7386 32.5852 88.9318 32.1307C88.1307 31.6705 87.4915 30.9687 87.0142 30.0256C86.5426 29.0767 86.3068 27.8778 86.3068 26.429C86.3068 24.946 86.5483 23.7074 87.0312 22.7131C87.5142 21.7187 88.1563 20.9744 88.9574 20.4801C89.7642 19.9858 90.6477 19.7386 91.608 19.7386C92.3409 19.7386 92.9545 19.8636 93.4489 20.1136C93.9432 20.358 94.3409 20.6648 94.642 21.0341C94.9489 21.3977 95.1847 21.7557 95.3494 22.108H95.4858V19.9091H99.0909V33.1278C99.0909 34.2415 98.8182 35.1733 98.2727 35.9233C97.7273 36.6733 96.9716 37.2358 96.0057 37.6108C95.0455 37.9915 93.9403 38.1818 92.6903 38.1818ZM92.767 30.0852C93.3523 30.0852 93.8466 29.9403 94.25 29.6506C94.6591 29.3551 94.9716 28.9347 95.1875 28.3892C95.4091 27.8381 95.5199 27.179 95.5199 26.4119C95.5199 25.6449 95.4119 24.9801 95.196 24.4176C94.9801 23.8494 94.6676 23.4091 94.2585 23.0966C93.8494 22.7841 93.3523 22.6278 92.767 22.6278C92.1705 22.6278 91.6676 22.7898 91.2585 23.1136C90.8494 23.4318 90.5398 23.875 90.3295 24.4432C90.1193 25.0114 90.0142 25.6676 90.0142 26.4119C90.0142 27.1676 90.1193 27.821 90.3295 28.3722C90.5455 28.9176 90.8551 29.3409 91.2585 29.642C91.6676 29.9375 92.1705 30.0852 92.767 30.0852ZM107.946 33.2557C106.599 33.2557 105.44 32.983 104.469 32.4375C103.503 31.8864 102.759 31.108 102.236 30.1023C101.713 29.0909 101.452 27.8949 101.452 26.5142C101.452 25.1676 101.713 23.9858 102.236 22.9688C102.759 21.9517 103.494 21.1591 104.443 20.5909C105.398 20.0227 106.517 19.7386 107.801 19.7386C108.665 19.7386 109.469 19.8778 110.213 20.1562C110.963 20.429 111.616 20.8409 112.173 21.392C112.736 21.9432 113.173 22.6364 113.486 23.4716C113.798 24.3011 113.955 25.2727 113.955 26.3864V27.3835H102.901V25.1335H110.537C110.537 24.6108 110.423 24.1477 110.196 23.7443C109.969 23.3409 109.653 23.0256 109.25 22.7983C108.852 22.5653 108.389 22.4489 107.861 22.4489C107.31 22.4489 106.821 22.5767 106.395 22.8324C105.974 23.0824 105.645 23.4205 105.406 23.8466C105.168 24.267 105.045 24.7358 105.04 25.2528V27.392C105.04 28.0398 105.159 28.5994 105.398 29.071C105.642 29.5426 105.986 29.9062 106.429 30.1619C106.872 30.4176 107.398 30.5455 108.006 30.5455C108.409 30.5455 108.778 30.4886 109.114 30.375C109.449 30.2614 109.736 30.0909 109.974 29.8636C110.213 29.6364 110.395 29.358 110.52 29.0284L113.878 29.25C113.707 30.0568 113.358 30.7614 112.83 31.3636C112.307 31.9602 111.631 32.4261 110.801 32.7614C109.977 33.0909 109.026 33.2557 107.946 33.2557ZM119.955 25.4318V33H116.324V19.9091H119.784V22.2188H119.938C120.227 21.4574 120.713 20.8551 121.395 20.4119C122.077 19.9631 122.903 19.7386 123.875 19.7386C124.784 19.7386 125.577 19.9375 126.253 20.3352C126.929 20.733 127.455 21.3011 127.83 22.0398C128.205 22.7727 128.392 23.6477 128.392 24.6648V33H124.761V25.3125C124.767 24.5114 124.563 23.8864 124.148 23.4375C123.733 22.983 123.162 22.7557 122.435 22.7557C121.946 22.7557 121.514 22.8608 121.139 23.071C120.77 23.2812 120.48 23.5881 120.27 23.9915C120.065 24.3892 119.96 24.8693 119.955 25.4318ZM137.168 33.2557C135.827 33.2557 134.674 32.9716 133.708 32.4034C132.748 31.8295 132.009 31.0341 131.492 30.017C130.981 29 130.725 27.8295 130.725 26.5057C130.725 25.1648 130.984 23.9886 131.501 22.9773C132.023 21.9602 132.765 21.1676 133.725 20.5994C134.685 20.0256 135.827 19.7386 137.151 19.7386C138.293 19.7386 139.293 19.946 140.151 20.3608C141.009 20.7756 141.688 21.358 142.188 22.108C142.688 22.858 142.964 23.7386 143.015 24.75H139.589C139.492 24.0966 139.237 23.571 138.822 23.1733C138.413 22.7699 137.876 22.5682 137.211 22.5682C136.648 22.5682 136.157 22.7216 135.737 23.0284C135.322 23.3295 134.998 23.7699 134.765 24.3494C134.532 24.929 134.415 25.6307 134.415 26.4545C134.415 27.2898 134.529 28 134.756 28.5852C134.989 29.1705 135.316 29.6165 135.737 29.9233C136.157 30.2301 136.648 30.3835 137.211 30.3835C137.626 30.3835 137.998 30.2983 138.327 30.1278C138.663 29.9574 138.938 29.7102 139.154 29.3864C139.376 29.0568 139.521 28.6619 139.589 28.2017H143.015C142.958 29.2017 142.685 30.0824 142.197 30.8438C141.714 31.5994 141.046 32.1903 140.194 32.6165C139.342 33.0426 138.333 33.2557 137.168 33.2557ZM147.581 37.9091C147.121 37.9091 146.689 37.8722 146.286 37.7983C145.888 37.7301 145.558 37.642 145.297 37.5341L146.115 34.8239C146.541 34.9545 146.925 35.0256 147.266 35.0369C147.612 35.0483 147.911 34.9688 148.161 34.7983C148.416 34.6278 148.624 34.3381 148.783 33.929L148.996 33.375L144.3 19.9091H148.118L150.828 29.5227H150.964L153.7 19.9091H157.544L152.456 34.4148C152.212 35.1193 151.879 35.733 151.459 36.2557C151.044 36.7841 150.518 37.1903 149.882 37.4744C149.246 37.7642 148.479 37.9091 147.581 37.9091Z" fill="white"/>
<path d="M26.0998 4L48.8998 20.6L40.1998 47.4H11.9998L3.2998 20.6L26.0998 4Z" stroke="#EF6D58" stroke-width="5"/>
<path d="M25.6001 18L34.6001 24.6L31.2001 35.2H20.0001L16.6001 24.6L25.6001 18Z" fill="#EF6D58"/>
</svg>
